<?xml version="1.0" encoding="UTF-8"?>
<svg version="1.1" viewBox="0 0 2000 1333" width="2000" height="1333" xmlns="http://www.w3.org/2000/svg">
<path transform="translate(219,205)" d="m0 0 4 2 1 125 7 2 2 4 1 107 18 1 3 3 1 6 1 17 8 2 2 3 1 6 1 16 4 2 4 10 5 5 1 2v10l-4 4v345l1 3 43-1v-122l2-13 1-1 13-1h18l8 1 3 3 1 3 1 33v133l13 1 7 3 2 2 5 1 2-15 1-115-1-88v-72l1-15 3-6 4-2h95l5 3 1 2 1 183v154l1 239 1 6 8-1 2-6 1-292 2-8 3-2 14-1 5-2 1-90 2-5 4-2 7-1 2-4v-35l1-59v-126l2-9 4-1h150l4 4 1 3 1 159 116 1 3 3 1 3v12l-1 4-9 2 1 53h6l1-49 1-4 4-1h54l3 6 1 245v90l5 1 2-1v-96l1-277v-28l1-125 2-4 9-1h144l5 4 1 3 1 180v76h89l15 1 5 2 2 5v12l-2 3-6 2v344l1 2 6-4 5-2 4 2-1-9-3-4-1-4-1-39 3-13-1-10v-9l2-6v-78l-3-9-2-7-1-33 2-10 3-5 2-8 1-20v-63l3-22v-16l-1-37-2-18v-28l1-19 1-33v-88l1-37 1-14 1-32 1-9 5-3 15-1 4-4 14-40 11-30 10-28 13-36 15-42 5-4 5 5 15 33 9 22 8 19 11 27 15 36 11 27 6 14 5 1h8l5 2 2 9 1 9v681l16-1 1-2 1-11v-437l2-10 1-1h56l3 1 1 3 1 51 5 1h22l7 2 3 4 1 141v259h15l1-2-1-481v-194l1-127 2-2h12l9 2 11 2 17 6 17 9 15 10 11 9 15 13v2l4 2 10 11 9 11 12 15 12 18 10 16 12 21 9 17 8 16 8 18 15 37 11 31 10 30 8 28 5 17 4 17 2 6 3 14 6 27 5 26 5 25 3 18 2 14 5 40 2 13 2 22 1 4 2 25 1 6 2 36 1 9 1 23 1 59v51l-1 30h104l8 2 1 6-4 3-970 1h-111l-636-1h-86l-35-1-2-2 1-5 6-2h56l1-13v-90l-1-7-1-25v-142l2-65v-130l-1-37v-105l1-12 1-36v-10h-14l-2-2v-9l2-4 2-1 9-1 3-9 9-3 1-23 2-2 10-1 1-23 4-4 16-1 1-108 2-3 6-2 1-126zm1075 125-4 6-3 10v5l8 1 7-1 1-5-5-14zm-1078 8-3 2v104l2 2h10l2-1 1-8v-96l-3-3zm1069 19-3 3-7 19v5h41l1-5-4-9-5-12-1-1zm-12 33-4 5-8 22v5h72l-1-6-8-19-2-5-2-2zm268 12-1 1v120l1 1 97 1 17 1-1 3-17 1-95 1-2 2v82l1 1 108 1 9 1 2 1v2l-3 1-40 1-75 1-2 2v91l2 2h70l41 1 1 4-112 1-2 2v62l4 2 97-1 58 1 24 1 1 3-61 1-122 1-1 2v86l2 2 105 2 1 3-57 1h-49l-2 2v47l2 2h89l120 1 2 1v2l-5 1-206 1-2 2v95l5 2h99l81 1v4l-184 2-1 1v50l2 2h96l80 1v3l-3 1-173 1-2 1v58l6 1h143l34 1v3l-6 1h-175l-2 2-1 17 3 2 62-1h214l3-3v-9l-2-4-81-1v-3l25-1 56-1 2-2v-51l-1-1-53-1-1-4 53-1 2-2v-28l-2-5h-82l-51-1-30-1 1-4 67-1h94l2-1v-34l-2-17-2-1-144-1 2-4 23-1 119-1 1-1v-17l-2-18-1-19-1-8-2-2-7-1-37-1v-3l3-1 39-1 1-1v-11l-3-25-2-11-1-1-14-1h-123l-3-1-1-5h139l1-1-1-15-4-25-3-15-3-3h-59l-85-2 1-4 86-1h42l14-1 1-5-5-21-5-25-3-14-1-1h-116l-66-1-1-3 33-2 31-1h96l19 1 1-6-5-22-8-26-6-20-8-24-2-2-145-1-2-1-1-3 119-2h25l1-4-6-15-6-16-9-20-8-18-4-2h-100v-4l3-1 94-2-1-7-14-26-6-9-9-14-5-2-62-1v-3l12-1 46-1 1-4-13-17-8-9-7-9h-2l-2-4-9-9-14-11-7-6-16-10-15-8-11-4-12-3zm-219 27-64 1-3 5-8 21v7l1 1h101l-1-10-7-17-5-8zm-1127 22-2 2v20l1 1h54l2-2v-20l-1-1zm1049 19-4 4-7 19v5l1 1h129l1-1v-6l-8-18-2-3-7-1zm-1065 10-1 18 1 2h82l1-1 1-14-1-5zm-8 26-2 1v5h99l1-5-1-1zm1041 0-2 2v680l2 11 2 1 21 1 2-1-1-692-4-2zm32 0-2 5v689l7 2h53l21-1 16 1 7-1 1-7 1-684-2-3-8-1zm112 1-2 4v689l1 1 12 1h14l4-2 1-6v-686l-1-1zm-1144 10-40 1-2 1v2l3 1 42 1h40l15-1 5-1v-2l-6-1-43-1zm-40 11-1 2v286l1 285v83l-1 12 2 2 49-1 1-1v-8l-3-5-16 1-6 1-5-2h-12l-1-1v-80l1-559 12-1 9 3 1 4 1 13v115l1 34-1 71 1 70v55l1 19 2 2 1-10v-359l2-16h18l3 1 5 18 2-4 2-12 2-3h20l2 25 1 122 1 35h1l1-12 1-21 1-83 1-78-6-2-81-1zm78 19-3 2-1 12v316l2 4h9l2-3v-330zm-63 1-1 1v628l2 1h6l3-2v-129l1-497-1-2zm31 0-2 5 1 410 3 1 2-5v-69l3-6 2-2 1-8 1-316-1-9-1-1zm353 11-2 5v520l1 1h113l1-5-1-1-11-1-88-1v-4l93-1 7-1 2-4v-17l-3-2h-99v-5l3-1 98-1 1-1v-16l-1-5-2-1-97-1-2-1v-3l11-1 89-1 2-2v-17l-1-4-19-1h-21l-61-1-1-4 100-1 3-3v-17l-1-3-2-1-41-1h-56l-2-1-1-4 5-2 3-1h30l36-2 14 1 12 1 3-5v-9l-2-6-1-1-99-1 1-4 93-1 7-2 1-1v-19l-1-2-37-1-64-1v-4l95-1 6-1 1-2v-19l-3-2-97-1-2-2 1-2 6-1h44l45-1 5-1 1-3v-12l-1-6-4-1-96-1v-5l4-2h44l13-3 10-1 28-1 2-4v-9l-1-4-46-1h-52l-3-1v-3l4-1 96-1 2-2v-18l-1-3-2-1-97-1-2-1v-3l96-1 5-1 1-3v-17l-1-3-99-1-2-1v-4l86-1 3-1 1-16 15-1 28-1 1-1v-157l-2-2zm351 0-1 2v521l1 3h8l2-2 1-512 5 1 1 525-1 97 4 2h13l3-3-1-1-1-122v-499h6v619l-2 4 7 3h8l5-3v-622l4-1 1 2v621h17l1-1-2-47v-258l1-45v-174l1-96 1-2 4 1 1 18 1 226 1 2 12-1 2-2 1-8 1-235 5-1v244l3 2h11l3-3 1-242 4-1 1 1v64l1 179 1 2h10l3-3v-253l-2-2zm-515 56-1 3 1 26v155l1 3h22l2-5v-18l-1-2-18-1-1-4 18-2 2-4v-21l-1-2-16-1-2-1-1-3 18-1 2-5v-21l-3-2-15-1v-3l2-1 14-1 2-3v-23l-5-2-16-1-1-4 20-1 2-2v-23l-22-1v-4l18-1 4-1 1-12 5-2 1 14 1 1 24-1 1-2 1-13h4l1 2 1 13 7 1h11l7 2h4l1-1v-23l-1-1zm33 29-1 1v23l1 1h22l3-3v-20l-2-2zm34 0-2 1-1 5 1 18 1 1 27 1 1-1v-17l-2-7-1-1zm-31 31-3 1-1 2v24l1 1h20l3-1 1-2 1-21-2-3-5-1zm54-1-10 1h-12l-3 2v25l1 2 18-1 7-2 1-3 1-24zm-259 12m-1 6v3h2v-3zm1 5-1 5 2-1zm-1 6-2 38v130l1 8h3l1-1v-148l-1-27zm206 6-4 2v24l2 2h21l3-4-1-22-6-2zm30 0-1 1v26l4 2 21-2 2-2v-17l-2-6-5-2zm208 16-2 1-1 7 2 3h157l2-2v-6l-2-3zm-240 18-2 1v25l1 1h20l4-4v-21l-2-2zm32 0-2 9 1 17 5 2 17-2 3-1 2-5v-11l-2-8-2-1zm220 0-1 1v339l2 2h8l1-1 1-18 1-3 6-2h13l5 2 1 2 1 11v8l1 1h11l2-3v-15l3-5 2-1h17l5 5v18l2 1h10l2-1 1-22 8-1h11l7 3 1 7v13l2 1h10l1-1v-97l1-241-2-3zm731 0-4 1-1 454 2 2h35l49-1 3-3v-396l-1-1-8-1h-25l-3-3-1-50-7-2zm-1157 2m0 2m67 1-4 2v129l6 5 2 15v298l45 1 2-5v-269l-1-1-16-2-3-2-1-5v-161l-1-4-2-1zm518 0-3 2-1 49-1 2-12 1v282l1 1h60l2-1 1-325-1-10zm-585 1m0 2m0 2m0 2m0 2-1 97v25l3 2 2-3-1-25-1-12v-56l-1-28zm208 19-3 1v23l2 2h13l8-4 2-3v-13l-3-5zm-32 0-4 2v21l2 3h21l2-2v-22l-1-1zm114 17-3 3-1 87-2 8-1 1-14 1-7 1v303l3 1 2-1h7l11 3 4-1 1-8-2-15v-8l1-7 1-30v-20l-1-8-5-4h-2l-1-6 1-6 12-2 2-2 1-93-1-194-1-3zm-150 15v30l2 3 1-2 5-1 15-1 2-5v-22l-1-1-17-1zm35 0-3 2v23l2 4 4 1 17-1 2-2 1-22-2-4zm31 1-1 1v25l3 3 19-1 3-3 1-3 1-20-1-2zm546 14-4 2 1 8 1 1 41-1h122l1-1v-7l-1-1zm-8 16-1 1v348l2 2 10 2 2-2 1-15v-32l-2-17-1-4v-25l1-15 1-42v-99l1-9v-92l-1-1zm22 0-1 1-1 249 1 109 1 1 36 1h100l3-4v-355l-2-2zm-625 4-1 1v25l1 5 5-3 14-1 4-1 1-3v-19l-1-2-7-1zm34 1-3 2v22l1 1h23l1-1v-22l-3-2zm33 0-3 3v19l1 3h10l7-2 5-4 2-9-1-7-3-2zm-67 31-1 1v65l-1 81v143l2 6 6-2 16-1 2-2v-22l-1-2-19-2 1-4 16-1 2-1 1-3v-19l-3-3h-16l1-5 15-1 3-5v-21l-1-2-21-1 1-4 8-1h11l2-5v-19l-2-3-17-1-1-2 3-3 15-1 2-3v-22l-3-2h-16l-1-5 18-1 2-4v-21l-1-2-19-2v-3l10-2 8-1 2-3v-20l-2-3-19-1 2-4 16-1 3-4v-18l-2-3h-19l2-4 8-2h7l3-2 1-5v-19l-1-1-17-1zm35 1-4 2v24l2 2 20-1 3-3v-22l-1-1zm30 1-1 1v24l1 2 25-1 1-2v-14l-4-6-3-3-3-1zm-242 9-2 1-1 59 1 4h101l2-7v-55l-2-2zm245 24-4 2v21l3 2h15l7 1 3-3 1-2v-8l-2-11-1-2zm-32 0-5 2v19l1 3 4 1 17-1 3-2 1-19-2-2-13-1zm-46 25-4 4-2-1v6l3 1 1 3h3l1-10zm43 6-2 2v19l1 5 7 1 13-1 4-2 1-20-4-4zm33 0-2 2v24l1 1 24 1 2-6v-20l-1-2zm-242 16-3 2v11l1 1h9l2-5-1-8-2-1zm17 0-3 3 1 9 5 1 2-3 1-6-1-3zm13 0-2 2v11l1 1h6l2-2v-10zm13 0-2 2 1 11 2 1h7l2-6-1-7-1-1zm17 0-2 2v10l3 2 6-1 1-1v-11l-1-1zm16 0-2 1v8l1 3h7l3-2v-7l-1-2zm-90 11v8l3-1-1-7zm256 6-2 2v25l1 1h23l2-3 1-9-1-14-2-2zm-33 1-2 1v23l1 2 5 1 17-2 2-3v-21l-1-1zm-209 2-3 1v63l1 1 99-1 2-1 1-6v-54l-1-2-50-1zm209 32-2 1v23l2 2h12l8-1 3-4v-19l-5-2zm39-1-8 1v25l1 1h22l2-2 1-5v-8l-2-9-2-2zm-36 34-5 3v18l2 5h15l7-3 1-2v-16l-2-3-13-2zm29 0-1 1v24l4 2 13-1 7-3 1-2v-13l-2-6-6-2zm-254 1-1 5-1 9v25l2 4 1-3v-12l2-6-1-19zm11 5-1 1v12l1 1h6l2-4v-8l-1-2zm27 0-2 4v7l1 2h5l3-5-1-7-1-1zm27 0-3 1-1 8 1 4h9l1-4-1-8-1-1zm14 0-2 1-1 10 2 2h5l2-3v-8l-2-2zm-28 1-1 2v8l4 1 1-1v-10zm44-1-4 1-1 9 2 4 7-2 1-2v-8l-2-2zm397 18-3 1-1 7-1 10 4 1h14l2-1 1-15-3-3zm40 0-1 2-1 16 2 1h15l2-1v-17l-2-1zm40 0-1 4 1 14 1 1h16l1-1 1-14-2-4zm-560 1-2 1v57l7 1h93l2-2 1-4v-50l-2-2-80-1zm210 8-2 2v22l3 4h11l10-2 1-2v-20l-4-4zm32 0-1 2v25l1 1h17l7-3 1-3v-21l-2-1zm94 24-3 2 1 7 2 6v6l1 3-3 11 2 16 1 7 3-1 3-12 5-3h17l1 4v16l-2 2h-20l-6-1-3 4v6l1 1 1 10h3l3-8 3-2h17l3 5v12l2 6h7l2-3 1-15 2-4 3-1h16l2 3 1 11v8l1 1h7l2-1 1-9v-7l3-6h17l3 2 1 13v9l2 1 9-1 1-21 4-3h18l2 9v12h7l1-4-1-5 3-8 6-4h16l3 7v17h9l1-1 1-15 2-7 1-1h17l4 4v19l9 1 2-1v-13l3-9 2-1h18l1 3 1 19h8l2-2 1-15 2-4 3-1h16l2 3 1 5v10l2 3h7l2-4 1-14 2-3h17l3 1 1 2 1 17 3 3h5l2-3 1-15 2-4 2-1h17l3 6 1 12 2 1 3-1 2-7 1-82-2-2zm-124 10-3 1-1 2v20l1 2h11l12-2 1-1 1-18-2-3zm30 0-1 1v24l1 1h11l10-3 3-3 1-12-2-5-2-2-4-1zm-231 22-2 2v12l5 1 1-1v-12zm-11 0-2 1v13l4 2 1-1v-13zm24 0-3 2-1 11 4 2 4-1 2-4v-7l-1-2zm26 1-2 1v12l10 2 2-2v-12l-1-1zm17 0-1 2v10l1 2h5l2-7-1-6zm-30 1-1 1v11h7v-12zm43 0-1 4v8l7 1 1-1v-12zm17 0-1 3 2 6h1l1-8zm113 9-3 2v22l3 2h7l13-3 2-2 1-9-2-9-6-3zm32 0-2 5 1 20 1 1h14l9-3 1-1v-19l-5-2-8-1zm106 4-1 1v10l3 1h9l2-1v-9l-2-2zm-350 7-1 6v37l2 3h41l58-1 3-3v-39l-1-2-3-1zm180 21-2 2-1 19 2 4 76-2 13-2 1-1v-18l-1-1h-24l-3 12-2 1-2-1-1-10-2-2h-23l-2 1-1 11h-3l-1-2-1-9-1-1zm170 4-1 1v7l2 4h11l1-1v-9l-2-2zm38 0-3 1v9l3 2h8l3-3v-7l-2-2zm34 0-2 5 1 6 2 1h10l1-2v-7l-3-3zm36 0-3 3 1 8 2 1h10l1-1v-9l-4-2zm36 0-3 2v8l2 2h10l2-2v-8l-2-2zm34 0-1 2v9l2 1h10l1-2v-8l-2-2zm35 0-1 1v10l3 1h9l1-1v-9l-3-2zm38 0-4 2v7l4 3h8l2-2v-8l-3-2zm35 0-3 2v9l3 1h8l2-2v-8l-7-2zm32 0v11l1 1h11l2-5-2-6-1-1z" fill="#121212"/>
<path transform="translate(466,621)" d="m0 0 5 1 1 2v13h18l7 2-1 4-2 1-22 1v13l1 10 23 2 1 5-10 1h-12l-2 1v27l3-1h14l6 2-1 4-22 1v26l3 1h17l2 4-3 2h-19l-1 9 1 17 4 1h15l3 1v4l-2 1-21 1 1 23 1 1 16 1 6 2-1 4-3 1-19 1v27l20 1 2 4-2 2-20 1v25h21l3 1-1 5-21 1-2 1v26l8-1 13 1 2 1-1 5-19 1-3 1v21l2 1h15l4 1 1 4-3 2-18 1-1 1v24l19 1 1 5-7 2h-12l-1 1v25l16 1 4 2-1 4-4 1h-16l1 25 3 1 15 1 2 1v4l-3 1-17 1v24l2 1 18 1 2 1-1 4-2 1h-19v27l19 1 4 2-2 4-21 1v24l21 1 4 1v4l-2 1h-23l-1 11 1 15 17 1 3 1-1 5-18 1-3 12-3 2-3-2-1-10-1-1h-25v11l-4 1-2-3-1-9-22-1-1 1-1 18h-1v-29l2 4v2l6-3 16-1 1-1v-24h-10l-9-1-1-3 2-3 18-1v-24l-18-1v-5l1-1 15-1 2-4v-23h-19l-2-1 1-5 8-1h11l1-4v-19l-1-2-17-1-2-3 4-4 15-1 1-2v-22l-2-1h-16l-1-1v-5l18-2 1-3v-23h-11l-8-1-1-4 3-2 16-2 1-2v-20l-1-2-16-1-3-1 2-5 16-1 2-3v-18l-1-2h-14l-5-1 1-4 3-2 13-1 2-1 1-5v-19l-17-1-7-1-1-6v-245h1l1 19v158l22-1 1-4v-20h-18l-2-2 1-4 18-2 1-3v-23h-16l-3-2v-3l2-1h16l1-5v-21l-2-1-15-1-1-4 3-2 14-1 1-2v-23l-4-1-16-1-1-5 2-1 18-1 1-1 1-23h-16l-6-1v-4l10-2h12v-12l2-2h4l1 2 1 12h24l1-15zm-26 23-1 1v23l1 1h22l3-3v-20l-2-2zm3 31-3 1-1 2v24l1 1h20l3-1 1-2 1-21-2-3-5-1zm0 34-4 2v24l2 2h21l3-4-1-22-6-2zm-2 34-2 1v25l1 1h20l4-4v-21l-2-2zm2 33-4 2v21l2 3h21l2-2v-22l-1-1zm-36 32v30l2 3 1-2 5-1 15-1 2-5v-22l-1-1-17-1zm35 0-3 2v23l2 4 4 1 17-1 2-2 1-22-2-4zm-34 35-1 1v25l1 5 5-3 14-1 4-1 1-3v-19l-1-2-7-1zm34 1-3 2v22l1 1h23l1-1v-22l-3-2zm1 32-4 2v24l2 2 20-1 3-3v-22l-1-1zm1 34-5 2v19l1 3 4 1 17-1 3-2 1-19-2-2-13-1zm-3 31-2 2v19l1 5 7 1 13-1 4-2 1-20-4-4zm0 34-2 1v23l1 2 5 1 17-2 2-3v-21l-1-1zm0 34-2 1v23l2 2h12l8-1 3-4v-19l-5-2zm3 33-5 3v18l2 5h15l7-3 1-2v-16l-2-3-13-2zm-3 33-2 2v22l3 4h11l10-2 1-2v-20l-4-4zm2 34-3 1-1 2v20l1 2h11l12-2 1-1 1-18-2-3zm-2 33-3 2v22l3 2h7l13-3 2-2 1-9-2-9-6-3z" fill="#131313"/>
<path transform="translate(189,541)" d="m0 0 9 1 5 3 1 4 1 13v115l1 34-1 69-1 405-6 1-5-2h-12l-2-2v-80l1-559 1-1zm-2 7-1 1v628l2 1h6l3-2v-129l1-497-1-2z" fill="#1A1A1A"/>
<path transform="translate(565,1138)" d="m0 0h1l2 12v7l2-1 3-12 3-3 3-1h15l3 3 1 2v16l-3 3h-20l-6-1-2 3v6l1 1v10h3l1-7 5-4h17l3 3 1 3v12l1 5h7l1-2 1-15 3-5 3-1h16l3 4 1 11v8h9v-16l4-7h17l4 3 1 13-1 9h11v-21l5-4h16l3 3 2 7v8l-1 4h7l-1-9 3-8 5-4 2-1h16l3 4 1 4v9l-1 8 9-1 1-15 2-7 2-2h17l5 5v15l-1 4h11l-1-13 3-9 3-2h16l4 4v19l8-1 1-1 1-15 3-5 3-1h16l3 4 1 5v10l1 2h7l1-3 1-14 3-4h17l4 2 1 2 1 19h7l1-2 1-15 3-5 2-1h17l3 4 1 3 1 12h4l1-7h1v17h-359zm14 8-1 1v10l3 1h9l2-1v-9l-2-2zm0 32-1 1v7l2 4h11l1-1v-9l-2-2zm38 0-3 1v9l3 2h8l3-3v-7l-2-2zm34 0-2 5 1 6 2 1h10l1-2v-7l-3-3zm36 0-3 3 1 8 2 1h10l1-1v-9l-4-2zm36 0-3 2v8l2 2h10l2-2v-8l-2-2zm34 0-1 2v9l2 1h10l1-2v-8l-2-2zm35 0-1 1v10l3 1h9l1-1v-9l-3-2zm38 0-4 2v7l4 3h8l2-2v-8l-3-2zm35 0-3 2v9l3 1h8l2-2v-8l-7-2zm32 0v11l1 1h11l2-5-2-6-1-1z" fill="#FEFEFE"/>
<path transform="translate(958,570)" d="m0 0 4 1 1 14v605l-2 3-5-1-1-122v-496l1-3z" fill="#0D0D0D"/>
<path transform="translate(1201,511)" d="m0 0h1v148l1 541h-24v-16l2 2 6-4 5-2 4 2-1-9-3-4-1-4-1-39 3-13-1-10v-9l2-6v-78l-3-9-2-7-1-33 2-10 3-5 2-8 1-20v-63l3-22v-16l-1-37-2-18v-28l1-19 1-33v-88l1-37 1-14z" fill="#FEFEFE"/>
<path transform="translate(982,570)" d="m0 0 3 1 1 2v613l-2 6h-5v-620z" fill="#070707"/>
<path transform="translate(553,241)" d="m0 0 5 1 1 1v8l-6 17-4 18-2 19 1 14 2 10 5 13 8 11 7 6 8 5 14 6 15 3 35 2 2 1 1 5-5 6-17 10-15 6-15 3-17 1-17-2-10-4-13-8-9-7-8-10-8-14-3-8-3-18v-14l4-22 5-13 6-11 7-10 7-8 4-5 6-5h2v-2zm-4 10-6 5-7 8-8 11-8 15-6 16-2 15v16l3 16 6 14 10 13 12 10 10 5 15 4h27l18-5 8-4 7-4v-4l-21-2-10-1-17-6-15-9-10-10-6-9-6-16-2-12v-20l3-19 5-16 3-8v-3z" fill="#0D0D0D"/>
<path transform="translate(501,639)" d="m0 0h1v559l-2 1h-85v-1l69-2 13-2v-18l-23-1v-1l18-1 1-4-6-1v-1l9-3v-19l-12-2-11-1v-1l25-1v-4l-14-1v-1l12-3 1-14-2-5-5-2 4-2 1-3-5-2 6-3 1-3 1-21-6-1 3-5-19-1v-1l13-1 7-2v-15l-1-6-6-1 1-2h3v-4l-17-1v-1l19-1 2-6v-8l-2-9-7-2 4-2v-3l-3-2 7-1 2-10-1-15-5-2 1-5 4-1 1-5v-22h-6l2-4 3-2h2l1-4v-8l-2-13-3-1 1-4-13-1v-1h15v-16l-4-6-5-3-14-1v-1l21-1 1-4-24-1v-1l15-2 6-4 2-9-1-7-2-1-10-1v-1l10-1v-4l-14-1v-1l17-1 1-5 1-22h-6l3-2v-3l-8-2 3-2 4-2 2-3v-13l-2-4-12-1v-1l13-1v-4l-7-1v-1l9-1 1-5v-11l-1-8-5-1 2-4-4-3 7-1 1-1v-17l-2-6-4-2 3-1v-3l-5-1 1-2 6-1 1-3 2-24h-3l-1-3-12-1v-1h16v-17l-2-7-4-2 4-3z" fill="#FEFEFE"/>
<path transform="translate(1432,234)" d="m0 0h29l25 2 24 4 26 6 27 9 16 7 16 8 14 8 14 10 2 3-1 4-5-1-10-6-23-11-24-8-20-5-18-5-15-3-21-3-15-1h-26l-16 1-12 2h-11l-4-4v-9l5-5 8-2z" fill="#0A0A0A"/>
<path transform="translate(209,550)" d="m0 0h1l1 632 1 2h-8v-402h1l1 70v55l1 19 1-8v-359z" fill="#FEFEFE"/>
<path transform="translate(392,944)" d="m0 0 3 1 1 2 3 1 1-4 1 256h-10v-255z" fill="#FEFEFE"/>
<path transform="translate(216,559)" d="m0 0h1l1 404 2 1 1-5v-69l2-2v290h-6l-1-1zm2 409v8l3-1-1-7zm1 75-1 5-1 9v25l2 4 1-3v-12l2-6-1-19z" fill="#FEFEFE"/>
<path transform="translate(240,546)" d="m0 0h1v334l-1 1h-5v-10h1l1 8 2-1v-148l-1-22 1-5h-2v14l-2 44h-1v-211h1l2 10 2-7zm-2 140m-1 6v3h2v-3zm1 5-1 5 2-1z" fill="#FEFEFE"/>
<path transform="translate(1710,1148)" d="m0 0 68 1 10 2-2 5h-200l-2-2v-3l4-1z" fill="#1A1A1A"/>
<path transform="translate(1578,852)" d="m0 0h139l38 1 2 5-4 1h-184l-1-5 1-1z" fill="#0C0C0C"/>
<path transform="translate(1564,687)" d="m0 0h174l3 2-1 4-3 1h-172l-4-2v-4z" fill="#090909"/>
<path transform="translate(1579,986)" d="m0 0 158 1 7 1v4l-2 1-102 1h-77l-5-2v-4l2-1z" fill="#101010"/>
<path transform="translate(1009,838)" d="m0 0h2v350l7 2 4 1 1-1 1-14h1v25h-94v-101h1l1 80 1 11 4 1 1 2 3 1h13l2-3 4 2 6 2h8l4-2 1-2 5-1v3l17-1 2-2 4 1z" fill="#FEFEFE"/>
<path transform="translate(265,568)" d="m0 0h1l1 122 1 23 1-21 1-75h1v256h-1l-1-20-1-12v-56l-1 69v25l1 2-3-1z" fill="#FEFEFE"/>
<path transform="translate(1289,727)" d="m0 0h26l7 4 8 4 5 3-1 5h-74l-2-2 1-4 11-7z" fill="#FEFEFE"/>
<path transform="translate(1052,922)" d="m0 0h96l10 2 1 1v5l-4 1h-104l-7-1-1-4 1-2z" fill="#3E3E3E"/>
<path transform="translate(586,647)" d="m0 0h115l2 2v4l-7 2h-56l-55-1-1-1v-5z" fill="#303030"/>
<path transform="translate(555,1091)" d="m0 0h379l-1 3h-378z" fill="#FEFEFE"/>
<path transform="translate(1060,1080)" d="m0 0h91l7 1 1 1v5l-2 1h-107l-7-2v-4l2-1z" fill="#373737"/>
<path transform="translate(1054,891)" d="m0 0h99l5 2 1 5-2 1h-113l-1-5 3-2z" fill="#151515"/>
<path transform="translate(685,616)" d="m0 0 16 1 3 4-5 3h-113l-3-3 2-4z" fill="#212121"/>
<path transform="translate(1037,165)" d="m0 0 4 1 6 23 5 5 5 3 1 3-7 8-5 7-4 13-2 5-4 1-3-5-2-11-3-9-6-8 1-5 6-5 3-5 2-8 1-11zm1 25-5 5-2 3 1 7 4 8 3 2 3-5 4-5 1-5-6-10z" fill="#131313"/>
<path transform="translate(372,181)" d="m0 0 4 1 5 20 2 6 5 2 4 2 1 5-9 9-5 10-4 13h-5l-2-4-2-12-6-12-3-4v-5l8-7 3-7 2-15zm1 23-7 9v7l6 11 3-1 6-10 2-4-9-12z" fill="#121212"/>
<path transform="translate(1129,1017)" d="m0 0h21l8 1 1 1v5l-2 1h-111l-3-2 1-4 1-1z" fill="#0B0B0B"/>
<path transform="translate(1046,955)" d="m0 0h111l2 1v5l-1 1h-114l-1-5z" fill="#0A0A0A"/>
<path transform="translate(1046,1112)" d="m0 0h111l2 1v5l-1 1h-113l-2-2 1-4z" fill="#090909"/>
<path transform="translate(1046,1049)" d="m0 0h111l2 2-1 5h-114l-1-5z" fill="#0F0F0F"/>
<path transform="translate(1047,1143)" d="m0 0h109l3 2-1 5h-113l-2-2 1-4z" fill="#292929"/>
<path transform="translate(1047,1175)" d="m0 0h111l1 5-2 2h-110l-4-2 1-4z" fill="#090909"/>
<path transform="translate(587,708)" d="m0 0h113l3 2-1 4-8 1h-106l-4-1-1-3 1-2z" fill="#1F1F1F"/>
<path transform="translate(1046,861)" d="m0 0h111l2 2-1 4-3 1h-109l-2-1v-5z" fill="#070707"/>
<path transform="translate(1797,207)" d="m0 0 4 1 4 17 4 9 8 4 1 5-11 11-4 11-3 10h-5l-2-3-2-13-6-12-3-3v-5l7-6 4-8 2-16zm0 23-6 9 1 9 4 9h4l4-8 4-6-2-4-6-9z" fill="#0E0E0E"/>
<path transform="translate(1461,374)" d="m0 0 4 1 2 4 4 17 2 4 9 6v5l-7 6-5 8-4 15-2 2-5-1-3-15-4-9-5-7 1-5 7-6 3-8 2-16zm2 24-7 8-1 3 5 13 4 2 5-9 4-4-2-5-6-8z" fill="#111"/>
<path transform="translate(820,569)" d="m0 0 4 1 5 18 3 7 4 3 4 2 1 4-5 5-6 8-4 11-4 9-4-1-4-16-4-10-4-5-1-4 7-6 4-7 2-17zm1 23-7 9v6l6 11 5-4 3-5 3-2v-5l-5-6-2-4z" fill="#0D0D0D"/>
<path transform="translate(661,677)" d="m0 0h33l8 1 1 5-1 1h-117l-2-2 2-4z" fill="#121212"/>
<path transform="translate(1295,771)" d="m0 0h19l19 5 2 2-1 5-4 1-70-1-2-4 1-2z" fill="#101010"/>
<path transform="translate(585,587)" d="m0 0h117l2 3-2 3-12 1-105-1-2-2v-3z" fill="#0B0B0B"/>
<path transform="translate(1141,986)" d="m0 0h15l3 2-1 5-25 1h-25l-64-1-1-4 2-2z" fill="#0B0B0B"/>
<path transform="translate(1289,812)" d="m0 0h22l14 3 8 2 2 2-1 4-2 1h-36l-37-1-1-4 1-2 3-1 19-2z" fill="#171717"/>
<path transform="translate(1294,691)" d="m0 0h19l13 3 8 3 1 3-3 3-73-1-1-4 2-2 14-3z" fill="#090909"/>
<path transform="translate(1261,1179)" d="m0 0h72l2 2v12l-2 2-10 1-1-5 2-3-10-1-55-1-1-4z" fill="#2F2F2F"/>
<path transform="translate(1566,583)" d="m0 0h46l38 1 3 2v3l-2 1-88 1-4-2 1-5z" fill="#242424"/>
<path transform="translate(163,863)" d="m0 0h1v234h-1l-1-7-1-25v-142z" fill="#FEFEFE"/>
<path transform="translate(1559,464)" d="m0 0h70l5 2-1 5h-79l-1-5z" fill="#0D0D0D"/>
<path transform="translate(1289,856)" d="m0 0h42l4 2-1 5-1 1h-72l-3-2 1-4 1-1z" fill="#373737"/>
<path transform="translate(1264,1098)" d="m0 0h67l4 3-1 4-4 1-71-1-1-5z" fill="#2C2C2C"/>
<path transform="translate(1e3 446)" d="m0 0 4 2 6 9 9 4-1 5-10 8-5 10h-4l-6-12-10-4-1-5 10-7 6-9zm-2 12-4 4 1 4 5 6 4-1 4-5-2-4-4-4z" fill="#0B0B0B"/>
<path transform="translate(1261,1139)" d="m0 0h73l1 5-2 2h-71l-4-2 1-4z" fill="#2A2A2A"/>
<path transform="translate(1292,534)" d="m0 0 40 1 3 3-2 4h-73l-2-5 2-2z" fill="#262626"/>
<path transform="translate(1313,896)" d="m0 0 20 1 2 2-1 4-1 1h-73l-2-4 3-3z" fill="#2B2B2B"/>
<path transform="translate(1311,574)" d="m0 0h14l9 1 1 5-2 2h-72l-3-2 1-4 1-1z" fill="#2D2D2D"/>
<path transform="translate(1261,1018)" d="m0 0h72l2 2-1 4-1 1h-71l-4-2 1-4z" fill="#1B1B1B"/>
<path transform="translate(1292,1058)" d="m0 0h41l2 2-1 4-1 1h-72l-3-2 1-4z" fill="#141414"/>
<path transform="translate(750,1019)" d="m0 0h19l3 4 1 5v13l-2 6-3 2h-16l-7-3-1-3v-18l3-5zm5 5-5 2v15l7 2h9l2-2v-16l-1-1z" fill="#3E3E3E"/>
<path transform="translate(749,853)" d="m0 0h19l4 3 1 3v13l-2 10-1 1h-17l-7-3-2-3v-19zm2 5-2 6 1 11 1 1h17v-17l-1-1z" fill="#4A4A4A"/>
<path transform="translate(751,894)" d="m0 0h17l4 4 1 5v13l-3 7-2 1h-17l-6-3-1-4v-16l1-4h2v-2zm0 6-1 1v15l1 2 12 1 5-2v-16l-1-1z" fill="#515151"/>
<path transform="translate(792,894)" d="m0 0h17l3 1 3 9v13l-2 5-2 2h-20l-4-3-1-3v-19l4-4zm0 6-1 1v16l4 2h13l1-1v-17l-1-1z" fill="#4E4E4E"/>
<path transform="translate(1267,615)" d="m0 0h65l2 1v5l-1 1h-73l-2-1 1-4 1-1z" fill="#282828"/>
<path transform="translate(792,1019)" d="m0 0h17l4 2 2 9v9l-1 7-3 3h-19l-5-3-1-2v-21l2-3zm1 5-2 1v17l1 1h16l1-1v-17l-1-1z" fill="#3A3A3A"/>
<path transform="translate(708,1019)" d="m0 0h18l5 5v22l-2 2-5 1h-14l-5-2-2-3v-20zm8 5-7 1-2 5v10l2 2h16l1-1 1-13-2-4z" fill="#3B3B3B"/>
<path transform="translate(794,853)" d="m0 0h14l5 2 2 8v12l-3 8h-11l-10-1-4-2-1-2v-21l3-3zm-3 5v17l1 1 16 1 1-1v-17l-1-1z" fill="#404040"/>
<path transform="translate(1152,619)" d="m0 0 5 1 4 9 1 3 6 1 2 2v3l-9 5-3 4-3 7h-5l-5-12-6-4v-5l9-7zm0 14-4 2 2 6h5l2-5-2-3z" fill="#121212"/>
<path transform="translate(1308,736)" d="m0 0h20l7 2-1 5h-74l-2-2 1-4z" fill="#0D0D0D"/>
<path transform="translate(871,180)" d="m0 0 4 2 3 10 9 3 1 5-10 6-5 11h-5l-5-12-6-5v-6l8-5 4-8zm-2 12-3 4 1 6 4 2 5-5-3-6z" fill="#171717"/>
<path transform="translate(1311,937)" d="m0 0h22l2 2-1 4-1 1h-72l-3-2 1-4z" fill="#0F0F0F"/>
<path transform="translate(1768,381)" d="m0 0 5 1 4 10v2l9 3v4l-9 5-3 4-4 8-4-1-4-9-2-4-6-4 1-5 8-6 3-7zm-1 12-3 2v7l3 3 4-1 3-4-2-5-2-2z" fill="#151515"/>
<path transform="translate(1269,163)" d="m0 0 5 1 4 9 3 3 6 2-1 5-9 6-5 10-5-1-4-9-4-5-3-2v-5l8-6zm-1 12-3 3v5l4 4 4-2 2-3-1-5-2-2z" fill="#131313"/>
<path transform="translate(1024,932)" d="m0 0h1v211h-1l-2-17-1-4v-25l1-15 1-42v-99z" fill="#FEFEFE"/>
<path transform="translate(139,282)" d="m0 0 4 2 3 10 10 3v5l-9 5-3 4-3 7-4 1-4-8-2-5-6-5 1-5 7-5 4-8zm-2 13-3 3 1 4 3 4 4-1 2-6-3-4z" fill="#151515"/>
<path transform="translate(709,894)" d="m0 0h12l8 2 2 4v22l-6 2h-17l-3-1-2-4v-19l3-5zm1 6-3 4v11l2 3 15 1 2-3 1-12-2-4z" fill="#393939"/>
<path transform="translate(807,404)" d="m0 0h5l5 11 3 2 5 1 1 4-3 3-8 4-4 10-4 1-3-5-4-8-6-5 1-5 8-5zm-1 12-2 2 1 7 1 2 5-1 2-2v-5l-3-3z" fill="#141414"/>
<path transform="translate(792,936)" d="m0 0h16l5 2 1 2 1 14-1 9-1 2h-24l-3-5v-18l2-5zm-1 6v17l2 1h15l1-1 1-14-1-3z" fill="#353535"/>
<path transform="translate(1331,655)" d="m0 0 4 2-1 5-10 1-64-1-2-1 1-5z" fill="#0D0D0D"/>
<path transform="translate(709,853)" d="m0 0h16l6 4v22l-3 3-14 1-9-2-2-4v-19l3-4zm1 5-2 1v16l1 1h16l1-1v-16l-2-1z" fill="#414141"/>
<path transform="translate(581,144)" d="m0 0 4 1 6 11 8 3v5l-9 5-3 4-2 7-5 1-3-5-3-8-6-5v-5l8-5zm-1 12-3 3v5l4 4 4-1 2-3-1-5-2-3z" fill="#151515"/>
<path transform="translate(791,978)" d="m0 0h20l3 4 1 7v10l-2 6-2 2h-18l-6-2-1-2v-21l2-3zm0 5v17l1 1h16l1-1v-17z" fill="#444"/>
<path transform="translate(749,978)" d="m0 0h20l3 4 1 9v8l-2 7-1 1h-16l-8-2-2-3v-19zm2 5-2 6 1 11 1 1h16l1-1 1-14-2-3z" fill="#4A4A4A"/>
<path transform="translate(600,477)" d="m0 0 5 1 5 10 2 2 7 3-1 4-8 4-3 4-3 7-5 1-5-11-6-6v-5l8-6zm0 12-3 2v5l3 5 4-1 2-3v-5l-3-3z" fill="#131313"/>
<path transform="translate(754,769)" d="m0 0h12l5 3 2 6v10l-2 10-3 1h-19l-4-3-1-5v-15l3-5zm-2 6-2 1-1 4 1 12 2 2h14l2-2v-16l-1-1z" fill="#3E3E3E"/>
<path transform="translate(712,246)" d="m0 0 4 1 4 9v2l9 3 1 4-5 3-6 4-4 10-4 1-4-7-3-7-6-5 1-4 8-6zm-1 12-4 4 2 6 6 1 3-6-4-5z" fill="#101010"/>
<path transform="translate(1168,356)" d="m0 0 5 1 5 11 9 4-2 4-6 3h-2l-2 5-3 7-5 1-3-5-3-7-6-5v-5l7-5h2l2-6zm0 11-4 4v5l4 3 4-1 2-2v-5l-3-4z" fill="#131313"/>
<path transform="translate(1814,536)" d="m0 0h4l5 12 8 3 1 5-10 5-4 9-1 2h-5l-5-11-4-4-2-1-1-5 10-7 3-7zm-1 12-3 3 1 7 2 2 4-1 2-2-1-7z" fill="#121212"/>
<path transform="translate(1260,978)" d="m0 0h73l2 4-1 2h-75l-1-4z" fill="#0B0B0B"/>
<path transform="translate(750,936)" d="m0 0h18l4 4 1 6v9l-1 8-2 2h-19l-5-2-2-5v-15l2-5zm1 6-2 3 1 14 1 1h16l1-1 1-15-1-2z" fill="#353535"/>
<path transform="translate(795,769)" d="m0 0h8l7 1 3 2 1 3v21l-3 3h-20l-4-2-1-4v-18l1-3zm-2 6-2 1v17l1 1h16l1-1v-16l-4-2z" fill="#3C3C3C"/>
<path transform="translate(789,812)" d="m0 0h23l2 3 1 8v9l-1 7-1 1h-24l-3-5v-18l1-4zm2 5v17l1 1h16l1-1 1-14-1-3z" fill="#373737"/>
<path transform="translate(355,389)" d="m0 0 5 5 4 8 8 3 1 3-3 3-6 3-4 5-3 7-5-1-5-12-6-4 1-5 7-5 5-9zm-2 12-3 4 1 5 2 3 5-1 1-1v-6l-2-4z" fill="#111"/>
<path transform="translate(1647,163)" d="m0 0h5l5 10 4 3 5 2-1 5-8 4-4 6-3 6-4-1-4-10-1-3-6-3v-6l9-6zm0 11-3 3v5l3 5 5-2 2-4-1-4-3-3z" fill="#0F0F0F"/>
<path transform="translate(710,936)" d="m0 0h16l5 5v21l-3 3h-21l-3-2-1-3v-18l3-5zm-2 6-1 7v9l4 2h13l2-2 1-14-2-2z" fill="#2D2D2D"/>
<path transform="translate(581,1108)" d="m0 0h13l4 5v14l-3 5h-21l-4-5 2-14 3-4zm-1 6-2 3v7l2 2h10l2-2v-7l-2-3z" fill="#141414"/>
<path transform="translate(897,1140)" d="m0 0h16l3 3 1 7-1 11-2 3h-21l-3-5v-9l2-7zm1 6-1 1v10l7 1 5-1 1-1v-8l-1-2z" fill="#202020"/>
<path transform="translate(394,544)" d="m0 0 4 1 4 10 9 5-1 4-6 3h-2l-2 5-4 8h-5l-4-11v-2l-5-2-2-2v-5l8-5 4-8zm-2 12-3 3 1 7 6 2 3-3-1-7-2-2z" fill="#101010"/>
<path transform="translate(708,978)" d="m0 0h18l4 2 1 2v22l-5 3h-15l-7-2-1-3v-19zm2 5-3 3 1 15h16l2-1v-16l-1-1z" fill="#404040"/>
<path transform="translate(748,812)" d="m0 0h22l2 3 1 6v14l-3 5h-22l-3-3-1-4v-15l2-5zm3 5-2 3 1 14 1 1h16l1-1 1-16-1-1z" fill="#383838"/>
<path transform="translate(793,1140)" d="m0 0h13l3 2 1 3v13l-2 5-1 1h-20l-3-3-1-7 2-9 4-4zm-1 6-2 2 1 9 10 1 3-3v-7l-2-2z" fill="#232323"/>
<path transform="translate(721,1140)" d="m0 0h14l3 2 2 6v9l-3 6-3 1h-16l-5-3v-14l5-6zm2 6-3 2v8l5 2 8-1 1-1v-8l-1-2z" fill="#2A2A2A"/>
<path transform="translate(706,812)" d="m0 0h21l4 4v21l-1 3h-23l-4-4v-19zm3 5-1 1-1 15 3 2h14l2-2 1-14-2-2z" fill="#313131"/>
<path transform="translate(713,769)" d="m0 0h8l9 3 1 4v21l-3 2h-21l-4-4v-19l2-5zm-2 6-4 3v12l2 4h16l2-7v-10l-2-2z" fill="#313131"/>
<path transform="translate(827,1140)" d="m0 0h14l4 4 1 11-2 7-3 2h-18l-3-2v-16l1-3zm4 6-5 3v6l2 2 6 1 5-1 1-2v-6l-2-3z" fill="#272727"/>
<path transform="translate(758,1140)" d="m0 0h12l3 1 2 5v15l-2 2-5 1h-13l-5-2-1-2v-13l3-6zm0 6-2 1v9l4 2 9-1v-10l-1-1z" fill="#1B1B1B"/>
<path transform="translate(859,1172)" d="m0 0h17l4 2 1 2v18l-2 1-20 1-3-1v-19zm6 6-3 2v9l3 1h8l2-2v-8l-7-2z" fill="#141414"/>
<path transform="translate(614,1140)" d="m0 0h15l4 4 1 11-2 7-2 2h-19l-3-2v-17l3-4zm2 6-2 1v10l7 1 6-1 1-8-2-3z" fill="#1B1B1B"/>
<path transform="translate(688,1140)" d="m0 0h12l3 3 1 2v14l-3 5h-20l-3-5v-8l2-8 3-2zm-2 6-2 7 1 4 3 1h8l2-1v-9l-2-2z" fill="#191919"/>
<path transform="translate(657,945)" d="m0 0 14 1 12 1h3l-1 4-97 1-5 1v-2l8-4h30z" fill="#FEFEFE"/>
<path transform="translate(753,1172)" d="m0 0h17l5 5v15l-2 3-21 1-3-3v-12l2-7zm4 6-1 2v9l2 1h10l1-2v-8l-2-2z" fill="#131313"/>
<path transform="translate(652,1140)" d="m0 0h11l4 1 2 6v13l-2 3-4 1h-14l-5-2-1-7v-8l3-6zm-1 6-2 6 1 5 3 1h8l2-2v-8l-1-2z" fill="#1F1F1F"/>
<path transform="translate(864,1140)" d="m0 0h12l3 1 2 4v16l-4 3-8 1-12-2-1-1v-18l3-3zm0 6-2 2v8l3 2h8l2-1v-10l-1-1z" fill="#151515"/>
<path transform="translate(164,549)" d="m0 0h1v158l-1 21h-1l-1-37v-105l1-12z" fill="#FEFEFE"/>
<path transform="translate(824,1109)" d="m0 0h19l2 3v17l-2 2-11 1h-9l-3-3v-15l2-4zm9 5-6 2-2 5 5 4h7l3-5-1-5-1-1z" fill="#161616"/>
<path transform="translate(826,1172)" d="m0 0h16l3 4 1 5-1 13-1 1-21 1-3-2v-16l3-5zm4 6-4 2v7l4 3h8l2-2v-8l-3-2z" fill="#1D1D1D"/>
<path transform="translate(684,1172)" d="m0 0h16l3 3 2 7v8l-1 4-2 1-20 1-3-2v-18zm3 6-3 3 1 8 2 1h10l1-1v-9l-4-2z" fill="#121212"/>
<path transform="translate(897,1108)" d="m0 0h16l3 4v15l-3 5h-20l-2-3v-16l2-4zm1 6-1 1v10l1 1h10l2-2v-8l-1-2z" fill="#141414"/>
<path transform="translate(722,1108)" d="m0 0h11l5 2 1 2v17l-2 2-11 1h-9l-3-2v-16l2-4zm2 6-4 2v7l2 2h10l2-3v-6l-2-2z" fill="#1D1D1D"/>
<path transform="translate(790,1172)" d="m0 0h16l4 4v18l-2 1-20 1-3-2-1-11 3-9zm2 6-1 1v10l3 1h9l1-1v-9l-3-2z" fill="#101010"/>
<path transform="translate(794,1108)" d="m0 0h10l5 2 1 2v14l-3 6h-20l-2-2-1-7 1-10 3-4zm-2 6-1 2v9l10 1 3-2v-7l-2-3z" fill="#151515"/>
<path transform="translate(759,1108)" d="m0 0h10l5 2 1 8v10l-2 3-8 1h-11l-4-1-1-9 1-10 3-3zm-1 6-2 2 1 9 1 1h10l1-3v-7l-1-2z" fill="#171717"/>
<path transform="translate(647,1172)" d="m0 0h17l4 3 1 13-2 7-21 1-3-3v-14zm4 6-2 5 1 6 2 1h10l1-2v-7l-3-3z" fill="#1A1A1A"/>
<path transform="translate(579,1140)" d="m0 0h15l3 3 1 2v16l-3 3h-20l-2-2v-18l3-3zm0 6-1 1v10l3 1h9l2-1v-9l-2-2z" fill="#141414"/>
<path transform="translate(896,1172)" d="m0 0h17l3 4v18l-1 1-21 1-3-2v-16l3-5zm1 6v11l1 1h11l2-5-2-6-1-1z" fill="#0E0E0E"/>
<path transform="translate(614,1172)" d="m0 0h16l3 4 1 11-1 7-1 1-21 1-3-2v-16l3-5zm3 6-3 1v9l3 2h8l3-3v-7l-2-2z" fill="#111"/>
<path transform="translate(619,1108)" d="m0 0 12 1 2 4v16l-4 3h-18l-3-2v-17l4-4zm-1 6-4 2-1 5 2 4h11l2-3-1-7-2-1z" fill="#1B1B1B"/>
<path transform="translate(652,1108)" d="m0 0h11l4 1 2 10v8l-2 4-19 1-5-3v-14l2-5zm0 6-2 1-1 6 2 5h11l1-1v-9l-1-2z" fill="#181818"/>
<path transform="translate(577,1172)" d="m0 0h17l3 3 1 3v16l-2 1-21 1-2-1v-20zm2 6-1 1v7l2 4h11l1-1v-9l-2-2z" fill="#0D0D0D"/>
<path transform="translate(864,1108)" d="m0 0h12l4 2 1 5v14l-5 3h-16l-4-2v-17l1-3zm0 6-2 1v10l1 1h11l1-1v-10l-1-1z" fill="#0D0D0D"/>
<path transform="translate(720,1172)" d="m0 0h16l3 4 1 4v9l-2 6-21 1-3-2 1-19zm3 6-3 2v8l2 2h10l2-2v-8l-2-2z" fill="#121212"/>
<path transform="translate(688,1108)" d="m0 0h11l5 5v14l-2 4-21 1-2-2v-17l3-4zm-2 6-2 7 2 5h10l2-2v-8l-1-2z" fill="#0B0B0B"/>
<path transform="translate(191,487)" d="m0 0h64l2 2v3l-2 1h-64l-2-2v-3z" fill="#2F2F2F"/>
<path transform="translate(684,822)" d="m0 0 2 4v3l-25 1h-76l1-2 3-1h44l13-3 10-1z" fill="#FEFEFE"/>
<path transform="translate(522,919)" d="m0 0h1v281h-15l1-10h1l1 6 8-1 2-6z" fill="#FEFEFE"/>
<path transform="translate(406,625)" d="m0 0h1l1 19v158h8v1l-5 1v4h-4l1 30 4 1-1 4 2 1h-5v25l1 3h3l-1 3-4 1-1-6z" fill="#FEFEFE"/>
<path transform="translate(1294,691)" d="m0 0h19l13 3 3 2-31 1h-38v-1l14-3z" fill="#FEFEFE"/>
<path transform="translate(1295,771)" d="m0 0h19l19 5v1h-67l4-2 20-3z" fill="#FEFEFE"/>
<path transform="translate(1289,812)" d="m0 0h22l14 3 6 1v1l-67 1h-5l3-2 19-2z" fill="#FEFEFE"/>
<path transform="translate(553,1100)" d="m0 0h5v100l-3-1 1-8-2-15v-8l1-7 1-30v-20l-1-8z" fill="#FEFEFE"/>
<path transform="translate(399,907)" d="m0 0h1v31l-2-2-5 4v-2h-2l-1-13-1-6 3 2 5 1z" fill="#FEFEFE"/>
<path transform="translate(1334,1184)" d="m0 0h1v9l-2 2-10 1-1-5 2-3-10-1v-1l17-1z" fill="#FEFEFE"/>
<path transform="translate(325,957)" d="m0 0h6l1 8-1 6h-8l-1-5 1-8z" fill="#FEFEFE"/>
<path transform="translate(448,1141)" d="m0 0h11l6 2v25h-17l4-2 9-2 2-7-2-12-5-2-8-1z" fill="#FEFEFE"/>
<path transform="translate(1209,1182)" d="m0 0h1l2 17 23 1h2v2l-15 1h-12l-1-2z" fill="#FEFEFE"/>
<path transform="translate(324,1132)" d="m0 0h7l-1 2h-2l1 6 2-4v10h-8v-13z" fill="#FEFEFE"/>
<path transform="translate(244,1048)" d="m0 0h5l1 2v11h-7v-12z" fill="#FEFEFE"/>
<path transform="translate(156,517)" d="m0 0h14l2 2h-2v2l3 1h-19l-1-4z" fill="#FEFEFE"/>
<path transform="translate(325,1048)" d="m0 0h6v13l-4 1-2-1z" fill="#FEFEFE"/>
<path transform="translate(554,793)" d="m0 0 3 1-2 2-1 64h-1v-66z" fill="#FEFEFE"/>
<path transform="translate(406,1165)" d="m0 0 2 4v2l5-2v4l11 1v1h-15l-1 1-1 18h-1z" fill="#FEFEFE"/>
<path transform="translate(534,1196)" d="m0 0h7l11 3v1h-23l1-3z" fill="#FEFEFE"/>
<path transform="translate(564,1108)" d="m0 0h2l2 6v6l1 3-3 11h-1z" fill="#FEFEFE"/>
<path transform="translate(464,977)" d="m0 0h1v24l-1 1h-19v-1l17-2 1-2z" fill="#FEFEFE"/>
<path transform="translate(464,1117)" d="m0 0h1v17l-1 1h-24v-1l20-2 3-1z" fill="#FEFEFE"/>
<path transform="translate(464,1011)" d="m0 0h1v23l-1 1-16 1v-1l13-2 2-3z" fill="#FEFEFE"/>
<path transform="translate(269,518)" d="m0 0h8v5h-22v-1l20-1v-2h-6z" fill="#FEFEFE"/>
<path transform="translate(1413,1185)" d="m0 0h1v15h-20l1-3v2l16-1 1-2z" fill="#FEFEFE"/>
<path transform="translate(306,966)" d="m0 0 1 3 11-2v3l-2 1h-10l-1-4z" fill="#FEFEFE"/>
<path transform="translate(1152,629)" d="m0 0 3 1 4 7-2 1-2-4-6 1-2 1 2-4z" fill="#FEFEFE"/>
<path transform="translate(572,1113)" d="m0 0h1v17l-3-3z" fill="#FEFEFE"/>
<path transform="translate(839,1120)" d="m0 0h1v6h-14l1-4 3 2h7z" fill="#FEFEFE"/>
<path transform="translate(708,899)" d="m0 0h18l1 5-2-3h-15l-3 3z" fill="#FEFEFE"/>
<path transform="translate(463,1063)" d="m0 0h1v5l-5 1h-10v-1l11-2z" fill="#FEFEFE"/>
<path transform="translate(254,962)" d="m0 0h1v8l-1 1h-8v-6l2 4h4z" fill="#FEFEFE"/>
</svg>
