<?xml version="1.0" encoding="UTF-8"?>
<!DOCTYPE svg PUBLIC "-//W3C//DTD SVG 1.1//EN" "http://www.w3.org/Graphics/SVG/1.1/DTD/svg11.dtd">
<!-- Creator: CorelDRAW -->
<svg xmlns="http://www.w3.org/2000/svg" xml:space="preserve" width="297.2mm" height="210.2mm" version="1.1" style="shape-rendering:geometricPrecision; text-rendering:geometricPrecision; image-rendering:optimizeQuality; fill-rule:evenodd; clip-rule:evenodd"
viewBox="0 0 29718.94 21019.25"
 xmlns:xlink="http://www.w3.org/1999/xlink"
 xmlns:xodm="http://www.corel.com/coreldraw/odm/2003">
 <defs>
  <style type="text/css">
   <![CDATA[
    .str0 {stroke:#2B2A29;stroke-width:20;stroke-miterlimit:22.9256}
    .fil0 {fill:#2B2A29}
    .fil5 {fill:#00CCFF;fill-rule:nonzero}
    .fil1 {fill:white;fill-rule:nonzero}
    .fil2 {fill:url(#id0);fill-rule:nonzero}
    .fil3 {fill:url(#id1);fill-rule:nonzero}
    .fil4 {fill:url(#id2);fill-rule:nonzero}
    .fil6 {fill:url(#id3);fill-rule:nonzero}
    .fil9 {fill:url(#id4);fill-rule:nonzero}
    .fil7 {fill:url(#id5);fill-rule:nonzero}
    .fil8 {fill:url(#id6);fill-rule:nonzero}
   ]]>
  </style>
  <radialGradient id="id0" gradientUnits="userSpaceOnUse" gradientTransform="matrix(2.16256 2.7562 -2.7562 2.16256 -705 -36285)" cx="11268.03" cy="4497.03" r="3097.02" fx="11268.03" fy="4497.03">
   <stop offset="0" style="stop-opacity:1; stop-color:#0056FF"/>
   <stop offset="0.309804" style="stop-opacity:1; stop-color:#7A748E"/>
   <stop offset="0.529412" style="stop-opacity:1; stop-color:#F4911D"/>
   <stop offset="1" style="stop-opacity:1; stop-color:#FF38B6"/>
  </radialGradient>
  <radialGradient id="id1" gradientUnits="userSpaceOnUse" gradientTransform="matrix(3.02279 3.85257 -3.85258 3.0228 -5540 -52635)" xlink:href="#id0" cx="11301.62" cy="4495.97" r="2227.91" fx="11301.62" fy="4495.97">
  </radialGradient>
  <radialGradient id="id2" gradientUnits="userSpaceOnUse" gradientTransform="matrix(2.28683 2.91458 -2.91456 2.28681 -1440 -38735)" xlink:href="#id0" cx="11304.64" cy="4497.03" r="2944.91" fx="11304.64" fy="4497.03">
  </radialGradient>
  <radialGradient id="id3" gradientUnits="userSpaceOnUse" gradientTransform="matrix(4.93132 6.28501 -6.28532 4.93157 -16234 -88742)" xlink:href="#id0" cx="11310.09" cy="4491.4" r="1365.68" fx="11310.09" fy="4491.4">
  </radialGradient>
  <radialGradient id="id4" gradientUnits="userSpaceOnUse" gradientTransform="matrix(2.06048 2.6261 -2.6261 2.06048 -201 -34491)" xlink:href="#id0" cx="11319.08" cy="4494.29" r="3268.42" fx="11319.08" fy="4494.29">
  </radialGradient>
  <radialGradient id="id5" gradientUnits="userSpaceOnUse" gradientTransform="matrix(6.20949 7.91405 -7.91362 6.20915 -23236 -112877)" xlink:href="#id0" cx="11299.43" cy="4502.17" r="1084.69" fx="11299.43" fy="4502.17">
  </radialGradient>
  <radialGradient id="id6" gradientUnits="userSpaceOnUse" gradientTransform="matrix(3.23814 4.12703 -4.12702 3.23813 -6750 -56708)" xlink:href="#id0" cx="11303.28" cy="4494.47" r="2079.77" fx="11303.28" fy="4494.47">
  </radialGradient>
 </defs>
 <g id="Layer_x0020_1">
  <metadata id="CorelCorpID_0Corel-Layer"/>
  <rect class="fil0 str0" x="10" y="10" width="29698.94" height="20999.25"/>
  <g id="_2885744141376">
   <path class="fil1" d="M11715.21 17636.12l-523.6 0 0 391.11c0,38.97 -32.73,70.15 -71.69,70.15l-141.79 0c-40.52,0 -73.25,-32.73 -73.25,-71.7l0 -947.43c0,-40.51 32.73,-71.69 73.25,-71.69l141.79 0c38.96,0 71.69,31.18 71.69,71.69l0 342.81 523.6 0 0 -342.81c0,-40.51 32.71,-71.69 71.68,-71.69l141.8 0c40.52,0 73.25,31.18 73.25,71.69l0 947.43c0,38.97 -32.73,71.7 -73.25,71.7l-141.8 0c-38.97,0 -71.68,-31.18 -71.68,-70.15l0 -391.11z"/>
   <path class="fil1" d="M12957.24 16983.17c389.58,0 612.43,163.63 612.43,568.79 0,405.17 -222.85,568.8 -612.43,568.8 -389.57,0 -612.41,-163.63 -612.41,-568.8 0,-405.16 222.84,-568.79 612.41,-568.79zm-325.68 568.79l0 0c0,233.74 91.94,363.1 325.68,363.1 233.76,0 325.69,-129.36 325.69,-363.1 0,-233.73 -91.93,-363.09 -325.69,-363.09 -233.74,0 -325.68,129.36 -325.68,363.09z"/>
   <path class="fil1" d="M14342.67 17000.32l193.22 0c196.34,0 406.73,113.76 406.73,280.49 0,70.15 -57.67,84.17 -77.93,84.17l-90.36 0c-43.65,0 -77.93,-20.26 -102.87,-71.69 -24.92,-52.99 -84.14,-77.93 -162.06,-77.93l-229.07 0c-93.5,0 -134.01,32.73 -134.01,87.26 0,180.78 824.33,76.38 824.33,483.08 0,186.99 -109.07,317.9 -483.06,317.9l-230.64 0c-196.34,0 -406.71,-113.76 -406.71,-280.49 0,-70.14 57.65,-84.16 77.91,-84.16l90.4 0c43.63,0 77.91,20.25 102.85,71.69 24.93,52.99 84.15,77.93 162.05,77.93l266.48 0c93.5,0 134.01,-32.73 134.01,-87.3 0,-180.75 -824.34,-79.45 -824.34,-483.04 0,-186.99 109.09,-317.91 483.07,-317.91z"/>
   <path class="fil1" d="M16211.12 17006.56c40.55,0 71.69,31.18 71.69,71.69l0 71.69c0,40.52 -31.14,71.66 -71.69,71.66l-339.71 0 0 805.63c0,38.97 -32.73,70.15 -71.66,70.15l-143.37 0c-38.97,0 -71.69,-31.18 -71.69,-70.15l0 -805.63 -339.71 0c-40.52,0 -71.7,-31.14 -71.7,-71.66l0 -71.69c0,-40.51 31.18,-71.69 71.7,-71.69l966.14 0z"/>
   <path class="fil1" d="M17615.26 17078.25l0 71.69c0,40.52 -32.73,71.66 -71.69,71.66l-662.27 0 0 221.3 570.32 0c38.96,0 71.69,32.69 71.69,71.65l0 71.7c0,38.96 -32.73,71.69 -71.69,71.69l-570.32 0 0 224.4 660.71 0c38.97,0 70.11,31.15 70.11,70.11l0 73.24c0,38.97 -31.14,71.7 -71.65,71.7l-874.24 0c-40.51,0 -71.69,-32.73 -71.69,-73.25l0 -947.46c0,-38.93 32.73,-70.11 71.69,-70.11l877.34 0c38.96,0 71.69,31.18 71.69,71.69z"/>
   <path class="fil1" d="M18157.6 17006.56c40.51,0 71.69,32.73 71.69,73.24l0 802.53 662.27 0c38.96,0 71.69,31.15 71.69,71.66l0 71.69c0,40.52 -32.73,71.7 -71.69,71.7l-877.33 0c-38.97,0 -71.7,-31.18 -71.7,-70.15l0 -947.43c0,-40.51 31.18,-73.24 71.7,-73.24l143.37 0z"/>
  </g>
  <g id="_2885744144304">
   <path class="fil1" d="M5977.55 12953.07c129.19,0 228.55,104.35 228.55,233.53l0 2558.97 2111.75 0c124.23,0 228.57,99.35 228.57,228.53l0 228.58c0,129.19 -104.35,228.57 -228.57,228.57l-2797.46 0c-124.21,0 -228.55,-99.39 -228.55,-223.61l0 -3021.04c0,-129.19 99.37,-233.53 228.55,-233.53l457.15 0z"/>
   <path class="fil1" d="M9266.8 13897.13c203.74,-770.16 904.34,-944.07 1609.9,-944.07l1306.8 0c119.27,0 208.7,104.35 208.7,223.58l0 3030.99c0,124.23 -104.36,223.61 -228.56,223.61l-457.14 0c-129.19,0 -228.56,-99.39 -228.56,-228.57l0 -611.18 -1724.19 0 -163.96 611.18c-34.8,129.19 -159,228.57 -288.19,228.57l-477.01 0c-129.21,0 -203.73,-99.39 -168.93,-223.61l611.15 -2310.51zm665.83 1008.68l0 0 1545.31 0 0 -1267.06 -690.67 0c-313.05,0 -561.48,188.82 -640.99,486.95l-213.66 780.11z"/>
   <path class="fil1" d="M16098.89 12953.07c129.22,0 228.57,99.39 228.57,228.57l0 228.58c0,129.19 -99.36,228.53 -228.57,228.53l-1083.2 0 0 2568.89c0,124.23 -104.35,223.61 -228.54,223.61l-457.13 0c-124.23,0 -228.57,-99.39 -228.57,-223.61l0 -2568.89 -1083.21 0c-129.19,0 -228.55,-99.35 -228.55,-228.53l0 -228.58c0,-129.19 99.37,-228.57 228.55,-228.57l3080.66 0z"/>
   <path class="fil1" d="M18618.06 15765.45c442.23,0 640.98,-228.58 640.98,-705.6l0 -1878.2c0,-129.19 104.35,-228.57 228.57,-228.57l452.14 0c129.2,0 233.54,99.39 233.54,228.57l0 1873.24c0,879.5 -516.75,1396.25 -1530.4,1396.25l-437.27 0c-1013.64,0 -1530.4,-516.75 -1530.4,-1396.25l0 -1873.24c0,-129.19 104.36,-228.57 233.54,-228.57l452.15 0c124.23,0 228.57,99.39 228.57,228.57l0 1878.2c0,477.02 198.77,705.6 640.97,705.6l387.6 0z"/>
   <path class="fil1" d="M21733.41 15159.23l0 1043.45c0,124.23 -99.39,228.57 -228.57,228.57l-457.15 0c-124.23,0 -228.57,-104.35 -228.57,-228.57l0 -3021.04c0,-129.19 99.39,-228.57 223.61,-228.57l2002.43 0c725.47,0 1267.06,417.4 1267.06,1103.08 0,536.63 -412.41,785.07 -914.27,884.47 203.73,74.51 352.8,248.41 551.54,561.46l442.23 700.61c79.51,129.19 44.72,228.57 -84.47,228.57l-581.35 0c-124.23,0 -293.16,-99.39 -372.68,-228.57l-412.43 -645.94c-124.2,-193.77 -303.09,-397.52 -616.14,-397.52l-591.26 0zm0 -1520.48l0 0 0 834.79 1033.49 0c278.25,0 631.05,-99.39 631.05,-417.4 0,-318 -352.8,-417.4 -631.05,-417.4l-1033.49 0z"/>
  </g>
  <polygon class="fil1" points="10385.95,17467.98 5284.84,17467.98 5284.84,17595.23 10385.95,17595.23 "/>
  <polygon class="fil1" points="24424.39,17467.98 19323.31,17467.98 19323.31,17595.23 24424.39,17595.23 "/>
  <g id="_2885744145216">
   <polygon class="fil2" points="16656.84,10527.61 11644.36,10527.61 11644.36,5699.04 10462.81,5699.04 10462.81,11709.06 16656.84,11709.06 "/>
   <polygon class="fil3" points="14326.34,10154.85 14326.34,5699.04 13144.8,5699.04 13144.8,10154.85 "/>
   <polygon class="fil4" points="18287.82,11709.06 18287.82,5699.04 17106.23,5699.04 17106.23,11709.06 "/>
   <path class="fil5" d="M15050.82 6517.72c0,117.74 -104.08,213.21 -232.22,213.21 -128.13,0 -232.03,-95.48 -232.03,-213.21 0,-117.82 103.91,-213.15 232.03,-213.15 128.15,0 232.22,95.34 232.22,213.15z"/>
   <path class="fil5" d="M16343.89 6469.16l-911.71 0c-1.24,20.05 -6.17,39.9 -15.81,57.9l-220.65 410.66 1245.29 0c0,0 -7.06,-195.57 -20.12,-282.49 -9.54,-64.08 -38.68,-139.92 -77,-186.06z"/>
   <path class="fil5" d="M15308.61 6407.96c-39.86,-22.5 -89.89,-7.6 -111.94,33.21l-176.03 327.81 -395.6 0c-45.51,0 -82.33,37.71 -82.33,84.33 0,46.55 36.82,84.41 82.33,84.41l444.34 0 48.5 0 222.96 -414.99c21.91,-40.93 7.48,-92.21 -32.24,-114.77z"/>
   <path class="fil5" d="M15050.82 7742.5c0,117.69 -104.08,213.16 -232.22,213.16 -128.13,0 -232.03,-95.48 -232.03,-213.16 0,-117.73 103.91,-213.08 232.03,-213.08 128.15,0 232.22,95.36 232.22,213.08z"/>
   <path class="fil5" d="M16343.89 7694.03l-911.71 0c-1.24,20.04 -6.17,39.73 -15.81,57.91l-220.65 410.52 1245.29 0c0,0 -7.06,-195.69 -20.12,-282.49 -9.54,-63.95 -38.68,-139.92 -77,-185.93z"/>
   <path class="fil5" d="M15308.61 7632.65c-39.86,-22.32 -89.89,-7.61 -111.94,33.33l-176.03 327.74 -395.6 0c-45.51,0 -82.33,37.78 -82.33,84.34 0,46.61 36.82,84.4 82.33,84.4l444.34 0 48.5 0 222.96 -415.18c21.91,-40.73 7.48,-92.01 -32.24,-114.63z"/>
   <path class="fil6" d="M16844.55 7041.13l-2639.24 0 0 183.96 2639.24 0c50.82,0 92.12,-41.15 92.12,-92.02 0,-50.68 -41.3,-91.95 -92.12,-91.95z"/>
   <path class="fil7" d="M16844.55 8558.91c-50.78,0 -92.05,-41.14 -92.05,-92l0 -1985.46c0,-50.82 41.27,-91.93 92.05,-91.93 50.82,0 92.12,41.11 92.12,91.93l0 1985.46c0,50.86 -41.3,92 -92.12,92z"/>
   <polygon class="fil8" points="17500.96,8827.09 13341.43,8827.09 13341.43,8265.87 17500.96,8265.87 "/>
   <polygon class="fil9" points="13109.12,5698.15 15698.68,3479.93 18288.34,5698.15 18967.17,5698.15 15698.68,2898.49 12430.34,5698.15 "/>
   <g>
    <polygon class="fil5" points="15651.76,5234.1 15302.68,5234.1 15302.68,4885.03 15651.76,4885.03 "/>
    <polygon class="fil5" points="16094.86,5234.1 15745.74,5234.1 15745.74,4885.03 16094.86,4885.03 "/>
    <polygon class="fil5" points="15651.76,5679.77 15302.68,5679.77 15302.68,5330.68 15651.76,5330.68 "/>
    <polygon class="fil5" points="16094.86,5679.77 15745.74,5679.77 15745.74,5330.68 16094.86,5330.68 "/>
   </g>
  </g>
 </g>
</svg>
