<?xml version="1.0" encoding="utf-8"?>
<!-- Generator: Adobe Illustrator 26.0.1, SVG Export Plug-In . SVG Version: 6.00 Build 0)  -->
<svg version="1.1" id="Layer_1" xmlns:xodm="http://www.corel.com/coreldraw/odm/2003"
	 xmlns="http://www.w3.org/2000/svg" xmlns:xlink="http://www.w3.org/1999/xlink" x="0px" y="0px" viewBox="0 0 842.5 595.8"
	 style="enable-background:new 0 0 842.5 595.8;" xml:space="preserve">
<style type="text/css">
	.st0{fill:url(#SVGID_1_);}
	.st1{fill:url(#SVGID_00000002367557083962928400000016343160419252741284_);}
	.st2{fill:url(#SVGID_00000052797546896042138570000000980868555559857579_);}
	.st3{fill:#00CCFF;}
	.st4{fill:url(#SVGID_00000054238753981802634650000010056104986854030495_);}
	.st5{fill:url(#SVGID_00000028323510410467795300000015819316025688269200_);}
	.st6{fill:url(#SVGID_00000155854013409428050380000005438232251928644993_);}
	.st7{fill:url(#SVGID_00000102503482010164462130000009977336789761576081_);}
</style>
<g id="_2885744141376">
	<path d="M317.5,533h-17.3v12.9c0,1.3-1.1,2.3-2.4,2.3h-4.7c-1.3,0-2.4-1.1-2.4-2.4v-31.3c0-1.3,1.1-2.4,2.4-2.4h4.7
		c1.3,0,2.4,1,2.4,2.4v11.3h17.3v-11.3c0-1.3,1.1-2.4,2.4-2.4h4.7c1.3,0,2.4,1,2.4,2.4v31.3c0,1.3-1.1,2.4-2.4,2.4h-4.7
		c-1.3,0-2.4-1-2.4-2.3V533z"/>
	<path d="M358.5,511.5c12.9,0,20.2,5.4,20.2,18.8c0,13.4-7.4,18.8-20.2,18.8c-12.9,0-20.2-5.4-20.2-18.8
		C338.3,516.9,345.6,511.5,358.5,511.5z M347.7,530.2L347.7,530.2c0,7.7,3,12,10.7,12c7.7,0,10.7-4.3,10.7-12c0-7.7-3-12-10.7-12
		C350.8,518.3,347.7,522.5,347.7,530.2z"/>
	<path d="M404.2,512h6.4c6.5,0,13.4,3.8,13.4,9.3c0,2.3-1.9,2.8-2.6,2.8h-3c-1.4,0-2.6-0.7-3.4-2.4c-0.8-1.7-2.8-2.6-5.3-2.6h-7.6
		c-3.1,0-4.4,1.1-4.4,2.9c0,6,27.2,2.5,27.2,15.9c0,6.2-3.6,10.5-15.9,10.5h-7.6c-6.5,0-13.4-3.8-13.4-9.3c0-2.3,1.9-2.8,2.6-2.8h3
		c1.4,0,2.6,0.7,3.4,2.4c0.8,1.7,2.8,2.6,5.3,2.6h8.8c3.1,0,4.4-1.1,4.4-2.9c0-6-27.2-2.6-27.2-15.9
		C388.2,516.4,391.8,512,404.2,512L404.2,512z"/>
	<path d="M465.8,512.2c1.3,0,2.4,1,2.4,2.4v2.4c0,1.3-1,2.4-2.4,2.4h-11.2v26.6c0,1.3-1.1,2.3-2.4,2.3h-4.7c-1.3,0-2.4-1-2.4-2.3
		v-26.6h-11.2c-1.3,0-2.4-1-2.4-2.4v-2.4c0-1.3,1-2.4,2.4-2.4H465.8L465.8,512.2z"/>
	<path d="M512.1,514.6v2.4c0,1.3-1.1,2.4-2.4,2.4h-21.8v7.3h18.8c1.3,0,2.4,1.1,2.4,2.4v2.4c0,1.3-1.1,2.4-2.4,2.4h-18.8v7.4h21.8
		c1.3,0,2.3,1,2.3,2.3v2.4c0,1.3-1,2.4-2.4,2.4h-28.8c-1.3,0-2.4-1.1-2.4-2.4v-31.3c0-1.3,1.1-2.3,2.4-2.3h28.9
		C511.1,512.2,512.1,513.3,512.1,514.6L512.1,514.6z"/>
	<path d="M530,512.2c1.3,0,2.4,1.1,2.4,2.4v26.5h21.8c1.3,0,2.4,1,2.4,2.4v2.4c0,1.3-1.1,2.4-2.4,2.4h-28.9c-1.3,0-2.4-1-2.4-2.3
		v-31.3c0-1.3,1-2.4,2.4-2.4L530,512.2L530,512.2z"/>
</g>
<g id="_2885744144304">
	<path d="M128.2,378.5c4.3,0,7.5,3.4,7.5,7.7v84.4h69.7c4.1,0,7.5,3.3,7.5,7.5v7.5c0,4.3-3.4,7.5-7.5,7.5h-92.3
		c-4.1,0-7.5-3.3-7.5-7.4v-99.7c0-4.3,3.3-7.7,7.5-7.7L128.2,378.5L128.2,378.5z"/>
	<path d="M236.7,409.7c6.7-25.4,29.8-31.1,53.1-31.1H333c3.9,0,6.9,3.4,6.9,7.4v100c0,4.1-3.4,7.4-7.5,7.4h-15.1
		c-4.3,0-7.5-3.3-7.5-7.5v-20.2h-56.9l-5.4,20.2c-1.1,4.3-5.2,7.5-9.5,7.5h-15.7c-4.3,0-6.7-3.3-5.6-7.4L236.7,409.7L236.7,409.7z
		 M258.7,442.9L258.7,442.9h51v-41.8h-22.8c-10.3,0-18.5,6.2-21.1,16.1L258.7,442.9L258.7,442.9z"/>
	<path d="M462.1,378.5c4.3,0,7.5,3.3,7.5,7.5v7.5c0,4.3-3.3,7.5-7.5,7.5h-35.7v84.7c0,4.1-3.4,7.4-7.5,7.4h-15.1
		c-4.1,0-7.5-3.3-7.5-7.4v-84.7h-35.7c-4.3,0-7.5-3.3-7.5-7.5v-7.5c0-4.3,3.3-7.5,7.5-7.5L462.1,378.5L462.1,378.5z"/>
	<path d="M545.2,471.3c14.6,0,21.1-7.5,21.1-23.3v-62c0-4.3,3.4-7.5,7.5-7.5h14.9c4.3,0,7.7,3.3,7.7,7.5v61.8
		c0,29-17,46.1-50.5,46.1h-14.4c-33.4,0-50.5-17-50.5-46.1v-61.8c0-4.3,3.4-7.5,7.7-7.5h14.9c4.1,0,7.5,3.3,7.5,7.5v62
		c0,15.7,6.6,23.3,21.1,23.3H545.2L545.2,471.3z"/>
	<path d="M648,451.3v34.4c0,4.1-3.3,7.5-7.5,7.5h-15.1c-4.1,0-7.5-3.4-7.5-7.5v-99.7c0-4.3,3.3-7.5,7.4-7.5h66.1
		c23.9,0,41.8,13.8,41.8,36.4c0,17.7-13.6,25.9-30.2,29.2c6.7,2.5,11.6,8.2,18.2,18.5l14.6,23.1c2.6,4.3,1.5,7.5-2.8,7.5h-19.2
		c-4.1,0-9.7-3.3-12.3-7.5l-13.6-21.3c-4.1-6.4-10-13.1-20.3-13.1L648,451.3L648,451.3z M648,401.1L648,401.1v27.5h34.1
		c9.2,0,20.8-3.3,20.8-13.8c0-10.5-11.6-13.8-20.8-13.8L648,401.1L648,401.1z"/>
</g>
<polygon points="273.7,527.5 105.4,527.5 105.4,531.7 273.7,531.7 "/>
<polygon points="736.8,527.5 568.5,527.5 568.5,531.7 736.8,531.7 "/>
<g id="_2885744145216">
	
		<radialGradient id="SVGID_1_" cx="13468.0381" cy="-4179.8208" r="3604.0461" gradientTransform="matrix(6.130310e-02 7.813129e-02 7.813129e-02 -6.130310e-02 -196.3033 -1208.9351)" gradientUnits="userSpaceOnUse">
		<stop  offset="0" style="stop-color:#0056FF"/>
		<stop  offset="0.3098" style="stop-color:#7A748E"/>
		<stop  offset="0.5294" style="stop-color:#F4911D"/>
		<stop  offset="1" style="stop-color:#FF38B6"/>
	</radialGradient>
	<polygon class="st0" points="480.5,298.5 315.2,298.5 315.2,139.2 276.2,139.2 276.2,337.5 480.5,337.5 	"/>
	
		<radialGradient id="SVGID_00000087405313322480585960000013586918632341034404_" cx="12842.6162" cy="-4029.3657" r="2592.6504" gradientTransform="matrix(8.568843e-02 0.1092 0.1092 -8.568872e-02 -356.5616 -1648.2892)" gradientUnits="userSpaceOnUse">
		<stop  offset="0" style="stop-color:#0056FF"/>
		<stop  offset="0.3098" style="stop-color:#7A748E"/>
		<stop  offset="0.5294" style="stop-color:#F4911D"/>
		<stop  offset="1" style="stop-color:#FF38B6"/>
	</radialGradient>
	<polygon style="fill:url(#SVGID_00000087405313322480585960000013586918632341034404_);" points="403.6,286.2 403.6,139.2 
		364.7,139.2 364.7,286.2 	"/>
	
		<radialGradient id="SVGID_00000088822063104644627890000015959486128285446561_" cx="13379.6924" cy="-4150.1924" r="3427.0334" gradientTransform="matrix(6.482583e-02 8.262096e-02 8.262039e-02 -6.482527e-02 -220.4893 -1274.9015)" gradientUnits="userSpaceOnUse">
		<stop  offset="0" style="stop-color:#0056FF"/>
		<stop  offset="0.3098" style="stop-color:#7A748E"/>
		<stop  offset="0.5294" style="stop-color:#F4911D"/>
		<stop  offset="1" style="stop-color:#FF38B6"/>
	</radialGradient>
	<polygon style="fill:url(#SVGID_00000088822063104644627890000015959486128285446561_);" points="534.3,337.5 534.3,139.2 
		495.3,139.2 495.3,337.5 	"/>
	<path class="st3" d="M427.5,166.2c0,3.9-3.4,7-7.7,7c-4.2,0-7.7-3.1-7.7-7c0-3.9,3.4-7,7.7-7C424.1,159.2,427.5,162.3,427.5,166.2z
		"/>
	<path class="st3" d="M470.2,164.6h-30.1c0,0.7-0.2,1.3-0.5,1.9l-7.3,13.5h41.1c0,0-0.2-6.5-0.7-9.3
		C472.4,168.7,471.5,166.2,470.2,164.6L470.2,164.6z"/>
	<path class="st3" d="M436,162.6c-1.3-0.7-3-0.3-3.7,1.1l-5.8,10.8h-13.1c-1.5,0-2.7,1.2-2.7,2.8c0,1.5,1.2,2.8,2.7,2.8h14.7h1.6
		l7.4-13.7C437.8,165,437.4,163.4,436,162.6L436,162.6z"/>
	<path class="st3" d="M427.5,206.6c0,3.9-3.4,7-7.7,7c-4.2,0-7.7-3.1-7.7-7c0-3.9,3.4-7,7.7-7C424.1,199.6,427.5,202.8,427.5,206.6z
		"/>
	<path class="st3" d="M470.2,205h-30.1c0,0.7-0.2,1.3-0.5,1.9l-7.3,13.5h41.1c0,0-0.2-6.5-0.7-9.3
		C472.4,209.1,471.5,206.6,470.2,205L470.2,205z"/>
	<path class="st3" d="M436,203c-1.3-0.7-3-0.3-3.7,1.1l-5.8,10.8h-13.1c-1.5,0-2.7,1.2-2.7,2.8c0,1.5,1.2,2.8,2.7,2.8h14.7h1.6
		l7.4-13.7C437.8,205.5,437.4,203.8,436,203L436,203z"/>
	
		<radialGradient id="SVGID_00000008851683804063873630000015250778830320366485_" cx="12209.0596" cy="-3880.4719" r="1589.2612" gradientTransform="matrix(0.1398 0.1782 0.1782 -0.1398 -711.1845 -2618.2974)" gradientUnits="userSpaceOnUse">
		<stop  offset="0" style="stop-color:#0056FF"/>
		<stop  offset="0.3098" style="stop-color:#7A748E"/>
		<stop  offset="0.5294" style="stop-color:#F4911D"/>
		<stop  offset="1" style="stop-color:#FF38B6"/>
	</radialGradient>
	<path style="fill:url(#SVGID_00000008851683804063873630000015250778830320366485_);" d="M486.7,183.5h-87.1v6.1h87.1
		c1.7,0,3-1.4,3-3C489.8,184.9,488.4,183.5,486.7,183.5L486.7,183.5z"/>
	
		<radialGradient id="SVGID_00000009581157952285936990000006692154599833228197_" cx="11989.0898" cy="-3844.552" r="1262.269" gradientTransform="matrix(0.176 0.2243 0.2243 -0.176 -944.1247 -3266.6289)" gradientUnits="userSpaceOnUse">
		<stop  offset="0" style="stop-color:#0056FF"/>
		<stop  offset="0.3098" style="stop-color:#7A748E"/>
		<stop  offset="0.5294" style="stop-color:#F4911D"/>
		<stop  offset="1" style="stop-color:#FF38B6"/>
	</radialGradient>
	<path style="fill:url(#SVGID_00000009581157952285936990000006692154599833228197_);" d="M486.7,233.6c-1.7,0-3-1.4-3-3V165
		c0-1.7,1.4-3,3-3c1.7,0,3,1.4,3,3v65.5C489.8,232.2,488.4,233.6,486.7,233.6z"/>
	
		<radialGradient id="SVGID_00000135671248597807539420000006076344307050536862_" cx="12733.9512" cy="-4003.0461" r="2420.2578" gradientTransform="matrix(9.179307e-02 0.117 0.117 -9.179278e-02 -396.6688 -1757.7091)" gradientUnits="userSpaceOnUse">
		<stop  offset="0" style="stop-color:#0056FF"/>
		<stop  offset="0.3098" style="stop-color:#7A748E"/>
		<stop  offset="0.5294" style="stop-color:#F4911D"/>
		<stop  offset="1" style="stop-color:#FF38B6"/>
	</radialGradient>
	<polygon style="fill:url(#SVGID_00000135671248597807539420000006076344307050536862_);" points="508.4,242.4 371.2,242.4 
		371.2,223.9 508.4,223.9 	"/>
	
		<radialGradient id="SVGID_00000179617789931080883660000014669413723995579061_" cx="13635.375" cy="-4200.876" r="3803.5066" gradientTransform="matrix(5.840939e-02 7.444328e-02 7.444328e-02 -5.840939e-02 -179.2634 -1160.9426)" gradientUnits="userSpaceOnUse">
		<stop  offset="0" style="stop-color:#0056FF"/>
		<stop  offset="0.3098" style="stop-color:#7A748E"/>
		<stop  offset="0.5294" style="stop-color:#F4911D"/>
		<stop  offset="1" style="stop-color:#FF38B6"/>
	</radialGradient>
	<polygon style="fill:url(#SVGID_00000179617789931080883660000014669413723995579061_);" points="363.5,139.2 448.9,66 
		534.3,139.2 556.7,139.2 448.9,46.8 341.1,139.2 	"/>
	<g>
		<polygon class="st3" points="447.4,123.9 435.8,123.9 435.8,112.4 447.4,112.4 		"/>
		<polygon class="st3" points="462,123.9 450.5,123.9 450.5,112.4 462,112.4 		"/>
		<polygon class="st3" points="447.4,138.6 435.8,138.6 435.8,127.1 447.4,127.1 		"/>
		<polygon class="st3" points="462,138.6 450.5,138.6 450.5,127.1 462,127.1 		"/>
	</g>
</g>
</svg>
