<?xml version="1.0" encoding="utf-8"?>
<!-- Generator: Adobe Illustrator 26.0.1, SVG Export Plug-In . SVG Version: 6.00 Build 0)  -->
<svg version="1.1" id="Layer_1" xmlns="http://www.w3.org/2000/svg" xmlns:xlink="http://www.w3.org/1999/xlink" x="0px" y="0px"
	 viewBox="0 0 1080 1080" style="enable-background:new 0 0 1080 1080;" xml:space="preserve">
<style type="text/css">
	.st0{fill:none;stroke:#000000;stroke-width:12;stroke-linecap:round;stroke-miterlimit:10;}
	.st1{fill:none;stroke:#000000;stroke-width:12;stroke-miterlimit:10;}
	.st2{fill:none;stroke:#000000;stroke-width:10;stroke-linecap:round;stroke-miterlimit:10;}
	.st3{fill-rule:evenodd;clip-rule:evenodd;fill:#FFFFFF;}
	.st4{fill:#D28F3E;}
	.st5{font-family:'Poppins-SemiBold';}
	.st6{font-size:138.6414px;}
	.st7{font-family:'Poppins-Medium';}
	.st8{font-size:28.7718px;}
	.st9{fill:none;stroke:#D28F3E;stroke-width:2;stroke-linecap:round;stroke-miterlimit:10;}
</style>
<rect x="0" y="0" class="st3" width="1080" height="1080"/>
<g>
	<path class="st4" d="M831.2,212c-6.5,0-11.8,5.3-11.8,11.8v142.6h-24.3c-50.8,0-92.9,35.7-99.2,81.7H260.8
		c0.5-22,18.6-39.8,40.7-39.8h226.7c6.5,0,11.8-5.3,11.8-11.8c0-6.5-5.3-11.8-11.8-11.8H301.5c-35.5,0-64.5,28.9-64.5,64.5v105.9
		c0,19.3,15.7,35,35,35h536.1c19.3,0,35-15.7,35-35V223.9C843.1,217.3,837.8,212,831.2,212z M808.1,566.4H272
		c-6.2,0-11.3-5.1-11.3-11.3v-83.2h558.7v83.2C819.4,561.3,814.3,566.4,808.1,566.4z M795.1,386.2h24.3v61.9H715.9
		C722.1,413.1,755.3,386.2,795.1,386.2z"/>
	<g>
		<text transform="matrix(1 0 0 1 123.319 785.7501)" class="st4 st5 st6">Latur Hostel</text>
	</g>
	<text transform="matrix(1 0 0 1 259.8102 833.9073)" class="st4 st7 st8">Find your home, away from your home</text>
	<line class="st9" x1="132.8" y1="826.5" x2="226.7" y2="826.5"/>
	<line class="st9" x1="853" y1="826.5" x2="946.9" y2="826.5"/>
</g>
</svg>
